<svg width="448" height="355" viewBox="0 0 448 355" fill="none" xmlns="http://www.w3.org/2000/svg">
<path d="M447.905 52.2561H430.19C423.613 52.2561 414.312 61.7444 414.312 67.8173V287.966C414.312 294.046 423.613 302.336 430.19 302.336H447.905V354.592H287.406V302.336H320.999V70.9177H319.352L240.906 354.592H180.173L102.738 70.9177H100.779V302.336H134.371V354.592H0V302.336H17.2076C24.2918 302.336 33.5928 294.046 33.5928 287.966V67.8156C33.5928 61.7426 24.2918 52.2544 17.2076 52.2544H0V0H168.024L223.189 205.289H224.712L280.383 0H447.905V52.2561Z" fill="white"/>
</svg>
