<svg id="Layer_1" data-name="Layer 1" xmlns="http://www.w3.org/2000/svg" viewBox="0 0 1158.62 148.37"><defs><style>.cls-1{fill:none;}.cls-1,.cls-2{stroke:#1d1d1b;stroke-linecap:round;stroke-linejoin:bevel;stroke-width:2px;}.cls-2,.cls-3{fill:#000000;}</style></defs><path d="M493.55,214.13a.91.91,0,0,1,.85.62c2.88,8.61,10.56,13.61,24,13.61,14.61,0,19.76-5.09,19.76-11.87,0-6.36-3.81-10.66-23.12-13-26.71-3.33-31.74-12.66-31.74-22.12,0-9.82,7.83-22.36,32.15-22.36,25.36,0,33.16,12.61,34.4,21.69a.9.9,0,0,1-.9,1H536.29a.9.9,0,0,1-.87-.67c-1.3-4.59-4.88-11.34-20.79-11.34-14.07,0-17.06,6.07-17.06,10.41,0,5.66,3.58,9.05,21,11.35,28.57,3.84,33.9,12.66,33.9,23.93,0,13.66-10.4,23.83-35,23.83-21.63,0-34.47-8.94-37.48-24a.92.92,0,0,1,.9-1.09Z" transform="translate(-108.42 -124.18)"/><path d="M572.48,172.4a6.44,6.44,0,0,1,6.44,6.44V214c0,8.7,2.23,12.57,10.51,12.57a39.72,39.72,0,0,0,6.42-.43.9.9,0,0,1,1,.9v8.74a.89.89,0,0,1-.62.86,38.25,38.25,0,0,1-11.15,1.2c-15.74,0-20.54-7-20.54-22V172.4Z" transform="translate(-108.42 -124.18)"/><path d="M667,161.14h-.51a.9.9,0,0,0-.9.9v33.45c0,22.13-7,31.65-23.34,31.65-13.64,0-18.17-10-18.17-21.47V171.51h0a10.39,10.39,0,0,0-10.37-10.37H579.83a.9.9,0,0,1-.91-.9V150.1a13.38,13.38,0,0,0-13.42-13.42.91.91,0,0,0-.91.9v22.65a.88.88,0,0,1-.9.9H550.41a.91.91,0,0,0-.9.91,10.35,10.35,0,0,0,10.35,10.36h50v35.89c0,22.16,12.46,31,28.58,31,14.5,0,21.55-4.82,25.64-11.77a.9.9,0,0,1,1.67.45c.08,3.44.22,6.57.4,8.42a.9.9,0,0,0,.9.8,12.87,12.87,0,0,0,12.87-12.9c0-3.08,0-6.17,0-9.27V174A12.87,12.87,0,0,0,667,161.14Z" transform="translate(-108.42 -124.18)"/><path d="M754.63,124.23a12.88,12.88,0,0,1,12.88,12.88v77.95q0,4.55,0,9.14a12.88,12.88,0,0,1-12.87,12.94h-.06a.88.88,0,0,1-.9-.79c-.25-2.3-.38-5.13-.46-7.84a.9.9,0,0,0-1.63-.51c-4.05,5.72-10.94,11.24-26.36,11.24-22,0-36.82-16.42-36.82-39.47,0-25,18.83-40.73,38.62-40.73,14.6,0,21.38,5.42,24.53,9.37a.9.9,0,0,0,1.61-.57v-42.7a.9.9,0,0,1,.9-.91Zm-51.48,75.24c0,14,8.49,27.82,25.1,27.82,18.1,0,25.53-11.63,25.53-28.43s-5.93-27.92-25-27.92C711.5,170.94,703.15,185.09,703.15,199.47Z" transform="translate(-108.42 -124.18)"/><path d="M786.84,124.23h0a7.15,7.15,0,0,1,7.14,7.15v2.88a7.14,7.14,0,0,1-7.14,7.14h0a7.14,7.14,0,0,1-7.14-7.14v-2.88A7.14,7.14,0,0,1,786.84,124.23Zm-6.24,36.91h.5A12.87,12.87,0,0,1,794,174v50.26a12.87,12.87,0,0,1-12.88,12.87h-.5a.9.9,0,0,1-.9-.9V162A.9.9,0,0,1,780.6,161.14Z" transform="translate(-108.42 -124.18)"/><path d="M883.46,199.11c0,21.12-13.65,40.13-41,40.13-25.71,0-40.06-19-40.06-40,0-21.79,15.21-40.18,40.81-40.18C869.55,159,883.46,179,883.46,199.11Zm-66.38.11c0,14.42,9.22,28.31,25.92,28.31,17.42,0,25.73-13,25.73-28.17s-9.19-28.61-26.08-28.61C825.39,170.75,817.08,184,817.08,199.22Z" transform="translate(-108.42 -124.18)"/><path d="M928.09,227.05v8.74a.89.89,0,0,1-.62.86,38.21,38.21,0,0,1-11.15,1.2c-15.76,0-20.55-7-20.55-22V172.4h7.9a6.44,6.44,0,0,1,6.44,6.44V214c0,8.7,2.23,12.57,10.5,12.57a38.85,38.85,0,0,0,6.43-.44A.92.92,0,0,1,928.09,227.05Z" transform="translate(-108.42 -124.18)"/><path d="M1020,161.14h-4.76a13,13,0,0,0-12,8.13c-12.41,30.93-19.18,50-21.64,56.91h-.25c-2.1-6-9.82-24.78-23.81-57.26a12.89,12.89,0,0,0-11.83-7.78H911a.9.9,0,0,1-.91-.9V150.1a13.42,13.42,0,0,0-13.44-13.42.91.91,0,0,0-.9.9v22.65a.9.9,0,0,1-.91.9H881.59a.91.91,0,0,0-.91.91h0a10.36,10.36,0,0,0,10.37,10.36h52.38l30.05,67.83a1,1,0,0,1,0,.76c-6.82,14.61-10.77,18.81-20.94,18.81a70.28,70.28,0,0,1-7.37-.48.91.91,0,0,0-1,.9v12.32h9.92c19.1,0,24-6.6,37.5-39.25l29.25-70.91A.9.9,0,0,0,1020,161.14Z" transform="translate(-108.42 -124.18)"/><path d="M1040.28,228.79v27.37A14.29,14.29,0,0,1,1026,270.45h0V180.11c0-6.31,0-12.66-.15-19h4.46a10,10,0,0,1,10,9.82v.17a.91.91,0,0,0,1.66.5c4.86-6.86,13.45-12.59,27.59-12.59,20.49,0,35.42,16.77,35.42,38.78,0,24.83-17.17,41.42-37.8,41.42-13.85,0-20.93-5.3-25.24-11A.9.9,0,0,0,1040.28,228.79Zm49.92-30.39c0-13.51-7.79-27.36-24.91-27.36-17.7,0-25.41,12.49-25.41,28.43s8.35,27.67,25.11,27.67S1090.2,213.62,1090.2,198.4Z" transform="translate(-108.42 -124.18)"/><path d="M1127.84,202.46a.91.91,0,0,0-.91,1c1.18,14.08,10.91,24.29,26,24.29,11.63,0,18.15-4.65,22.25-11.76a.91.91,0,0,1,.78-.46h12.44a.91.91,0,0,1,.85,1.24c-4.41,11-15.18,22.49-37.09,22.49-27.23,0-39.61-19.89-39.61-39.87,0-23,15.28-40.33,39.26-40.33,28.85,0,39,21.13,39,39.66,0,1,0,1.84,0,2.87a.92.92,0,0,1-.91.89Zm47.08-10.15a.9.9,0,0,0,.9-1c-.93-9-6-21.16-24.14-21.16-15.15,0-22.78,9.19-24.4,21.12a.92.92,0,0,0,.91,1Z" transform="translate(-108.42 -124.18)"/><path d="M1208.15,214.13a.9.9,0,0,1,.85.62c2.88,8.61,10.56,13.61,24,13.61,14.61,0,19.77-5.09,19.77-11.87,0-6.36-3.82-10.66-23.13-13-26.71-3.33-31.74-12.66-31.74-22.12,0-9.82,7.83-22.36,32.15-22.36,25.36,0,33.16,12.61,34.4,21.69a.9.9,0,0,1-.9,1h-12.64a.9.9,0,0,1-.87-.67c-1.3-4.59-4.88-11.34-20.78-11.34-14.08,0-17.06,6.07-17.06,10.41,0,5.66,3.58,9.05,21,11.35,28.57,3.84,33.9,12.66,33.9,23.93,0,13.66-10.4,23.83-34.94,23.83-21.64,0-34.48-8.94-37.49-24a.92.92,0,0,1,.9-1.09Z" transform="translate(-108.42 -124.18)"/><path class="cls-1" d="M292.8,178.64" transform="translate(-108.42 -124.18)"/><path class="cls-1" d="M317.08,193.62" transform="translate(-108.42 -124.18)"/><path class="cls-1" d="M268.53,163.67" transform="translate(-108.42 -124.18)"/><path class="cls-1" d="M292.8,178.64" transform="translate(-108.42 -124.18)"/><polyline class="cls-1" points="318.53 56.83 228.53 0.87 158.61 40.34 183.14 55.2 228.53 28.18"/><polyline class="cls-1" points="228.53 28.18 228.53 57.37 249.58 70.03 228.53 57.37 208.65 69.44 228.53 81.7 272.45 57.37 228.53 81.7 208.65 69.44"/><polyline class="cls-1" points="92.36 28.18 92.36 57.37 112.06 69.42"/><polyline class="cls-1" points="228.53 81.7 91.01 0.87 1 56.83 26.14 71.26"/><path class="cls-1" d="M244.63,178.55" transform="translate(-108.42 -124.18)"/><polyline class="cls-1" points="92.36 28.18 46.98 57.37 92.36 81.7 112.06 69.42 92.36 57.37 71.27 70.21 92.36 57.37"/><polyline class="cls-1" points="26.14 71.26 92.36 109.27 135.34 83.67"/><polyline class="cls-1" points="208.65 69.44 228.53 57.37 228.53 28.18 184.38 54.47"/><line class="cls-1" x1="112.06" y1="69.42" x2="135.34" y2="83.67"/><path class="cls-1" d="M244.63,178.55" transform="translate(-108.42 -124.18)"/><polyline class="cls-1" points="318.53 88 228.53 140.71 228.53 109.54 318.53 56.83 318.53 88"/><polyline class="cls-1" points="160.19 98.88 228.53 140.71 228.53 109.54 185.23 83.67 228.53 109.54"/><polyline class="cls-1" points="92.36 28.18 136.21 54.38 160.33 68.79 185.23 83.67 160.33 68.79"/><line class="cls-1" x1="135.34" y1="83.67" x2="160.18" y2="98.88"/><polygon class="cls-2" points="26.14 71.26 1 56.83 1 88 92.36 140.08 92.36 109.27 26.14 71.26"/><polygon class="cls-1" points="92.36 109.27 92.36 140.08 160.19 98.88 135.34 83.67 92.36 109.27"/><polyline class="cls-3" points="228.27 109.54 184.97 83.67 228.27 109.54 228.27 140.71 159.93 98.88 135.08 83.67 111.8 69.42 92.1 57.37 92.1 28.18 135.95 54.38 160.07 68.79 184.97 83.67 160.07 68.79"/><line class="cls-1" x1="228.52" y1="28.18" x2="272.45" y2="57.37"/><path class="cls-1" d="M355.46,119.73" transform="translate(-108.42 -124.18)"/><polyline class="cls-3" points="249.58 69.74 272.45 57.37 228.53 27.88 228.53 57.07 249.58 69.74 228.53 57.07"/><path class="cls-1" d="M199.43,125.05" transform="translate(-108.42 -124.18)"/></svg>
