<?xml version="1.0" encoding="utf-8"?>
<!-- Generator: Adobe Illustrator 25.0.1, SVG Export Plug-In . SVG Version: 6.00 Build 0)  -->
<svg version="1.1" id="Layer_1" xmlns="http://www.w3.org/2000/svg" xmlns:xlink="http://www.w3.org/1999/xlink" x="0px" y="0px"
	 viewBox="0 0 728 674" style="enable-background:new 0 0 728 674;" xml:space="preserve">
<g transform="translate(0.000000,674.000000) scale(0.100000,-0.100000)">
	<path d="M2674.3,5410.8c-126.1-23.1-250.9-87.5-343.9-179c-86.1-84.1-132.9-158.7-175.7-281.5c-12.2-33.2-237.4-659.2-500.5-1390.3
		c-263.8-731.1-484.9-1353.7-491.7-1383.6c-17-72.6-23.7-234.7-12.9-309.3c42.7-291,242.1-481.5,579.2-554.8
		c65.8-14.2,67.8-14.2,1571.4-14.2c828.1,0,1505.6-2,1505.6-4.1c0-4.1-90.2-252.3-114.6-317.4c-6.8-16.3-6.1-18.3,2.7-14.9
		c6.8,2.7,816.6,583.3,843,604.3c2.7,2.7-406.9,600.2-411.7,600.2c-2,0-31.9-73.2-65.1-162.8l-61-162.8H3425.7H1852.3l-33.9,16.3
		c-39.3,18.3-86.8,67.1-105.8,107.8c-8.1,18.3-12.9,44.1-12.9,73.2c0,42,26.5,118,480.9,1376.8
		c264.5,732.5,484.2,1340.1,488.3,1350.3c12.2,32.6,53.6,70.5,97,90.9l42.7,19.7l377.8,2l377.1,2l6.8,18.3
		c3.4,10.2,37.3,101.7,75.3,203.5c38,101.7,68.5,186.5,68.5,187.9c0,1.4-38,4.1-84.1,4.7l-84.1,2l23.1,59.7
		c12.9,33.2,23.1,61.7,23.1,63.1s-194.6,2.7-432,2C2819.4,5420.3,2715.6,5418.3,2674.3,5410.8z"/>
	<path d="M3650.2,5400c-5.4-12.2-11.5-29.2-13.6-37.3l-4.7-15.6h92.2c86.1,0,92.9-0.7,88.2-11.5c-14.2-38-166.2-451.7-166.2-453.7
		c0-1.4,43.4-2.7,97-2.7h97.7l83.4,229.2c45.4,125.5,85.5,231.3,88.2,234c2.7,2.7,40,4.1,82.7,3.4l78.7-2l-60.4-162.8
		c-66.5-177-76.6-223.1-57.6-259.8c21-40,31.2-42,233.3-42h182.4l42,21c51.5,25.8,86.8,67.8,111.9,132.9
		c9.5,25.1,46.1,122.8,81.4,215.7l63.8,169.6l-95.6,2c-67.8,1.4-97-0.7-100.4-6.1c-2.7-4.7-38-97-78-204.8
		c-78-211.6-92.2-236-137-248.9c-31.9-8.8-69.9-8.8-92.2,0c-35.9,13.6-38,6.8,110.5,405.6l20.3,55.6h-369.6H3659L3650.2,5400z"/>
	<path d="M5366.1,5203.3c-44.8-120.7-89.5-242.8-99.7-271.3l-19.7-52.9h97.7h97.7l44.1,120.7c24.4,65.8,63.8,170.9,86.1,234
		l42,113.3h69.9c76.6,0,87.5-4.7,86.1-39.3c-0.7-10.2-33.9-109.9-75.3-221.8l-73.9-203.5l94.9-2c52.9-0.7,97-0.7,98.3,0.7
		c1.4,2,37.3,96.3,80,210.9c81.4,216.3,86.8,240.8,68.5,285.5c-18.3,43.4-24.4,44.1-283.5,44.1h-233.3L5366.1,5203.3z"/>
	<path d="M4822.8,5403.3c-14.9-38.7-193.3-525.6-193.3-528.3c0-1.4,42-2.7,94.3-2.7h93.6l46.1,122.1l46.1,122.1h61.7
		c104.4,0,109.9-12.9,61.7-142.4c-17-45.4-30.5-84.8-30.5-88.8s36.6-5.4,95.6-4.7l96.3,2l33.9,88.2c36.6,95.6,43.4,143.8,24.4,162.8
		c-10.2,10.2-8.1,13.6,22.4,42.7c78,73.2,101.7,170.9,52.9,219.7l-19,19h-240.8C4845.2,5414.9,4827.6,5414.2,4822.8,5403.3z
		 M5140.9,5336.2c27.8-27.8-6.8-109.2-58.3-135.6c-12.2-6.1-40.7-9.5-82.1-9.5h-64.4l22.4,59.7c12.2,32.6,25.8,67.1,29.8,78
		c6.8,18.3,7.5,18.3,74.6,18.3C5115.1,5347,5132.8,5344.3,5140.9,5336.2z"/>
	<path d="M3053.4,4631.5c-23.7-46.1-88.8-107.8-144.5-137.7c-48.8-25.8-132.9-48.8-178.4-48.8h-31.9l-65.1-177.7l-64.4-178.4
		l144.5-3.4l144.5-3.4l-361.5-997c-198.7-548-362.8-1003.8-365.6-1011.9l-4.7-15.6h273.3h274l457.1,1263.5
		c250.9,694.5,463.9,1281.8,472.7,1305.6l15.6,42h-273.3H3073L3053.4,4631.5z"/>
	<path d="M4100.5,4658c-118.7-31.2-219.1-110.5-270.6-213.6c-37.3-75.3-668-1825.7-681.6-1892.9c-13.6-67.1-14.2-180.4-0.7-232.6
		c31.9-120.7,124.8-202.8,274.7-242.8c57.6-14.9,59.7-14.9,610.4-14.9h552.7l47.5,15.6c107.2,35.9,201.4,115.3,249.6,212.3
		c27.1,53.6,653.1,1780.3,680.9,1878c20.3,71.9,27.8,184.5,15.6,245.5c-23.1,118-100.4,193.3-244.8,237.4l-50.2,15.6l-573.1,1.4
		C4227.4,4668.2,4131.7,4666.8,4100.5,4658z M4933.4,4148c26.5-19,48.8-60.4,48.8-89.5c0-25.8-496.5-1414.1-514.1-1437.8
		c-7.5-9.5-23.1-23.1-35.9-30.5c-21.7-12.9-37.3-13.6-307.9-15.6c-187.2-1.4-293,0-309.3,4.7c-47.5,14.2-80,52.9-82.1,97.7
		c-0.7,21.7,486.3,1399.8,508,1436.5c11.5,19,38.7,38,68.5,46.8c10.2,3.4,149.9,5.4,309.9,4.7l291.6-1.4L4933.4,4148z"/>
</g>
</svg>
