<?xml version="1.0" encoding="utf-8"?>
<!-- Generator: Adobe Illustrator 25.0.1, SVG Export Plug-In . SVG Version: 6.00 Build 0)  -->
<svg version="1.1" id="Layer_1" xmlns="http://www.w3.org/2000/svg" xmlns:xlink="http://www.w3.org/1999/xlink" x="0px" y="0px"
	 viewBox="0 0 1998 1159" style="enable-background:new 0 0 1998 1159;" xml:space="preserve">
<g>
	<path d="M896.1,138.6c55-31.9,125.6-34.7,183-7.7c6.6,3.7,15.6,5.3,19.3,12.6c-35.1-4.7-69,10.6-98.9,27.4
		c-7.1,3.6-13.5-3.8-19.7-6.2c-27.6-11.8-56.7-25.5-87.6-21C893.1,142.4,895.2,139.9,896.1,138.6L896.1,138.6z"/>
	<path d="M801.9,262.8c9.1-35.1,27.4-68.3,53.8-93.3c12.2-3.2,23.9,3.9,34.2,9.6c19.2,12.1,35,28.5,52,43.3
		c-33.4,41.4-64.2,85.3-87.4,133.4c-10.9,24-22.4,50.3-16.4,77.1c-7.7-5.4-11.4-14.3-16.3-22.1C796.4,366.6,789.2,312.3,801.9,262.8
		L801.9,262.8z"/>
	<path d="M1114.3,172.7c6.8-2.5,15.1-6.5,21.9-2.1c58.6,55.4,76.2,148.5,42.6,221.8c-7.1,14.3-13.5,30-25.8,40.6
		c1.3-8.1,2.9-16.4,1.2-24.7c-4.5-29.3-18.6-55.8-32.6-81.5c-20.7-36.9-45.4-71.3-71.8-104.4
		C1069.6,203.9,1089.6,184.5,1114.3,172.7L1114.3,172.7z"/>
	<path d="M882.7,389.7c31.7-44.4,70.2-84,113.2-117.6c37.3,29.4,71.1,63.3,100.5,100.6c13.8,18.4,27.6,37.5,34.7,59.6
		c3.1,10.2,4.4,23.6-5,31c-28.4,24.3-63.7,40.9-100.7,45.9c-56.8,8.8-117-8.3-160.4-46.1c-6.4-5.4-8-14.7-6.4-22.7
		C862,421.7,872.3,405.2,882.7,389.7L882.7,389.7z"/>
	<path d="M1044.4,589c31.9-23.7,76.4-27.9,112.9-12.7c21.2,8.7,38.4,25.1,51.2,43.9c12.3,23.3,18.7,49.7,17.8,76.2
		c-0.5,34.8-13.2,70.9-39.9,94.3c-44.2,39.2-120.1,35.2-158.7-10c-26.9-30.6-34.4-74.1-28.3-113.5c2.3-17.5,9.8-33.5,17.2-49.3
		C1025.1,607.6,1033.4,596.9,1044.4,589 M1098.5,594.4c-17.6,3.1-35.4,10.4-46.3,25.2c-18.6,17.4-25.9,43.2-27,68
		c-0.4,29.1,7,60.4,28.7,81.1c29.3,29.9,82,30.9,112.9,3c16.8-14.7,26.8-35.9,30.1-57.7c4.8-29.3,0.2-61.2-16.8-86
		c-5.2-6.2-11.6-11.3-16.8-17.6C1145.4,595.9,1121,591.3,1098.5,594.4L1098.5,594.4z"/>
	<path d="M581.8,573.3c10.5-0.1,21-0.1,31.5-0.2c22.4,30.8,47,59.9,68.2,91.5c21.8-30.3,46.3-58.7,66.5-90.3c11-2.9,22.8-0.9,34.1-1
		c-27.3,38.4-56.2,75.5-83.5,114c9.5,10.9,17.3,23.1,25.5,35c22.2,30,44.2,60,66.3,90c-10.7-0.1-21.4-0.1-32.1-0.1
		c-25.1-33.8-49.7-67.8-75.6-100.9c-7.2,4.7-10.2,13.9-16,20c-8,7.3-13.5,16.8-20.1,25.3c-13.5,18.6-27.4,36.9-40.9,55.5
		c-10.7,0-21.5,0.1-32.2,0.2c25.7-34.3,50.8-69.1,76.4-103.6c5.5-6.9,7.7-16.6,15.7-21.4c-8.9-10.3-16.8-21.3-24.2-32.7
		c-8.9-11.8-18.7-23-27.6-34.8C606,602.5,591.9,589,581.8,573.3L581.8,573.3z"/>
	<path d="M802.8,573.1c33,0.1,66.1-0.1,99.1,0c15.9,0.2,32.6,2.2,46.3,10.7c19,11,31.6,33,30,55.1c0.2,19.4-11.4,37.1-27.7,47
		c13.6,7.6,26.4,18.6,31.4,33.8c9.9,26,1.7,58.7-21.2,75.3c-17.6,13.1-40.3,17.2-61.8,17.2c-32-0.1-64.1,0.1-96.1,0
		c-0.9-37.3,0.1-74.7-0.1-112c-16.8,0.1-33.5,0-50.3,0c5.8-8.1,11.7-16.1,17.7-24.1c10.9-0.1,21.7-0.2,32.6-0.3
		C801.6,641.6,803,607.3,802.8,573.1 M829.7,598.8c0.4,25.7,0.2,51.3,0.1,77c25-0.2,50,0.4,75,0c12.7-0.4,26.2-3.7,35.5-12.9
		c14.6-13.9,13-39.8-0.9-53.6c-12.1-9.6-28.3-11-43.1-11C874.1,598.6,851.9,598,829.7,598.8 M829.8,700.5
		c0.2,28.8-0.3,57.6,0.2,86.5c24.8-0.2,49.6,0.2,74.5-0.2c14.2-0.8,29.3-3.5,40.5-13c14.3-12.5,17.2-35.2,8.7-51.8
		c-9.4-15.6-28.8-20.5-45.9-21.4C881.9,700.2,855.8,700.7,829.8,700.5L829.8,700.5z"/>
	<path d="M1209.4,573.1c10.5-0.1,21,0,31.4-0.1c23.1,30.7,45.8,61.6,69.1,92.3c21.6-31.1,45.1-60.8,67.4-91.4
		c10.4-1.7,21.1-0.5,31.6-0.7c-9.7,16.2-22.7,30.1-32.3,46.3c-15.4,20-30.1,40.5-45.3,60.6c-2,2.7-4.5,6-3,9.6
		c29.5,41.1,59.6,81.9,89.4,122.7c-10.7,0.1-21.4,0-32.1-0.2c-25.1-34.4-50.8-68.3-76-102.5c-25.8,34.2-51.2,68.7-77.1,102.8
		c-10.6-0.2-21.1-0.2-31.7-0.1c31.1-41.4,61.2-83.6,92.2-125.1C1265.4,649,1237.2,611.2,1209.4,573.1L1209.4,573.1z"/>
	<path d="M224.8,884.4c26.6-19.5,65.7-19.2,92,0.6c14.4,10.9,23,27.8,26.9,45.1c-6.9,0.2-13.9,0.3-20.9,0.5
		c-3.4-8.8-6-18.3-12.2-25.6c-23.8-27.3-76.4-20.7-89.9,13.9c-12.4,24.2-13.9,54.2-2.3,78.9c16.4,33.5,67.6,41.3,93.2,14
		c10.6-9.5,13.2-24.3,14.9-37.8c-18.9,0.1-37.7-0.1-56.6,0.2c0-6.3,0.1-12.7,0.1-18.9c25.1-0.1,50.1-0.2,75.2,0.1
		c-0.2,29.3,0,58.7,0.1,87.9h-19.7c0.2-6.7,0.3-13.4,0.6-20.1c-11.5,13.9-28.9,22.6-46.8,23.9h-19c-17.2-2.3-34.4-9.2-46.4-22.1
		c-11.8-12.8-18.9-29.3-22.2-46.1v-38.8C195.9,918.5,206.6,897.3,224.8,884.4L224.8,884.4z"/>
	<path d="M889.4,890.7c11-14.3,29.8-19.9,47.2-20.5c20.1-0.6,42.5,4,56.2,20c9.7,10.5,12.1,25.1,13,38.7c-6.4,0.1-12.9,0.1-19.3,0.2
		c-1.3-8-1.5-16.7-6.2-23.5c-6.5-9.9-18.2-14.8-29.6-16.5c-13.9-2-29.1-0.7-40.8,7.7c-9.7,6.8-12.7,21-7.5,31.5
		c3.7,6.1,10.3,9.7,16.8,12.2c20.7,7.7,43.6,7.9,63.8,17.1c9.4,4.2,18.1,11,22.4,20.5c7.3,16.8,4.1,38.4-9.3,51.3
		c-12.3,12.3-30.1,16.4-47,17.8h-2.7c-20.5-1.1-42.9-5.4-57.2-21.4c-11.3-12-13.9-29.2-13.5-45h19.3c0.2,9.3-0.3,19.5,4.8,27.7
		c7.5,12.7,22.6,18,36.4,19.7c15.4,1.9,32.9,0.2,44.9-10.6c12.1-10.5,11.8-33.4-3-41.3c-25.6-13.9-57.8-10.2-82.2-26.8
		C877.7,936.4,875.9,907.8,889.4,890.7L889.4,890.7z"/>
	<path d="M1514.4,897.6c27-33.8,82.5-36.8,113.9-7.7c32.2,29.7,35.9,82.4,14.7,119.4c-12.2,21.8-35.7,34.9-60.1,37.9h-9.9
		c-38.6,0.8-72.3-31.8-77.3-69.2C1491.3,950.1,1495.9,919.6,1514.4,897.6 M1558.4,890.5c-17.6,4.8-32.1,18.7-38.5,35.8
		c-9.4,24.7-8.3,54.6,6.8,76.7c18.1,27.2,60.4,33.8,85.4,12.4c29.7-25.2,31.4-74,9.4-104.8C1607.5,891.6,1581,884,1558.4,890.5
		L1558.4,890.5z"/>
	<path d="M1686.1,885.4c16.3-14.8,40.2-17.2,61.2-14c16.9,2.3,34,10.8,42.5,26.2c5.7,9.4,6.9,20.7,7.6,31.5c-6.4,0-13,0-19.3,0
		c-0.6-9.7-1.9-20.1-8.9-27.2c-12.7-13.6-33.6-15.5-50.9-12.3c-12.8,2.2-25.8,11.6-26.4,25.5c-1.5,10.2,5.6,19.7,14.7,23.5
		c21.7,9.1,45.9,9.5,67.8,18.3c11.4,5.2,21.7,14.7,25,27.2c4.1,14.7,1.3,31.8-9.1,43.2c-13.1,15.9-35,20.5-54.6,19.7
		c-21.4-0.4-44.8-7.1-57.8-25.2c-8.8-11.8-10.6-26.8-10.3-41.1c6.6,0,13.2,0,19.9,0c0.2,9.8-0.9,20.6,5.4,28.9
		c6.8,10.7,19.3,15.8,31.4,17.7c16.3,3.1,35.1,1.7,48.3-9.3c12.5-10.5,12.4-34.2-3.1-41.8c-25.4-13-56.5-10-80.6-25.9
		C1667.4,936,1667.4,901.6,1686.1,885.4L1686.1,885.4z"/>
	<path d="M404.6,918c8-14.2,12-30.1,19.6-44.6c5.6,0.3,11.2,0.6,16.8,1c14.9,39.8,32.8,78.3,47.3,118.2c6.8,13.9,9.7,29.3,17.5,42.7
		c0.8,2.6,1.5,5.2,2.3,7.9c-8.1-0.1-16.8,1.7-24.5-1.9c-2.4-17.6-12.7-32.9-18.4-49.5c-22.6,0.1-45.2,0.4-67.9-0.2
		c-7.9,16.9-13.2,35-21.5,51.7c-7,0-14,0.1-21,0.1c4.2-14.7,11.4-28.3,16.8-42.7C383.3,973.4,392.1,944.9,404.6,918 M404.8,973.4
		c18.1-0.2,36.3,0,54.5,0.2c-6.8-17.6-13.8-35.1-20.8-52.5c-1.8-6.7-3.5-13.4-5.7-19.9C422.8,924.9,413.9,949.3,404.8,973.4
		L404.8,973.4z"/>
	<path d="M518.1,874.1c7.3-0.2,14.6-0.3,21.8-0.4c20.5,46.6,40.1,93.6,59.9,140.5c13.8-32.3,27.5-64.7,39.8-97.5
		c8.3-13.1,12.7-28.2,18.9-42.4c7.5-0.3,15-0.5,22.6-0.5c0.3,56.4,0,112.8,0.7,169.1c-6.8,0.3-13.7,0.3-20.5,0.2
		c0.1-42.4-0.1-84.9,0.1-127.2c-13,27.8-23,56.9-35.5,84.9c-6.6,13.8-10.3,28.7-15.8,42.9c-6-0.2-12-0.3-18-0.4
		c-18.7-42.1-35.9-85.1-53.8-127.6c0.1,42.4-0.3,84.8,0.2,127.2c-7,0.2-14,0.4-21,0.6c1.2-42-0.2-84,0.3-126
		C518.4,903.1,518.3,888.6,518.1,874.1L518.1,874.1z"/>
	<path d="M701.4,874.1c39.6-0.3,79.3-0.3,118.9-0.1c0,5.6,0,11.3,0,16.9c-33.3,0.2-66.5-0.1-99.8,0.1c0.2,18.8,0.2,37.6,0,56.4
		c31.3,0.1,62.5-0.3,93.7,0.2c-0.1,5.5-0.2,11-0.2,16.5c-31,0.2-62.1-0.1-93.2,0.2c-0.4,20.6-0.2,41.3,0,61.9
		c33.6,0.2,67.1,0,100.7,0.1c-0.1,5.6-0.2,11.2-0.4,16.8c-40,0.1-79.9,0-119.9,0.1C701.3,986.7,701.6,930.4,701.4,874.1L701.4,874.1
		z"/>
	<path d="M1008.4,873.9c43.9,0.1,87.8-0.1,131.8,0.1c-0.1,6.1-0.1,12.2-0.2,18.5c-18.6-0.1-37.2-0.1-55.8,0
		c0.2,50.2-0.1,100.4,0.3,150.6c-6.9,0.1-13.8,0.1-20.6,0.1c0.9-50.1-0.3-100.3,0.5-150.5c-18.7-0.4-37.4-0.2-56.1-0.2
		C1008.2,886.2,1008.3,880,1008.4,873.9L1008.4,873.9z"/>
	<path d="M1151.7,874c6.5,0,13.1,0,19.7,0.2c-0.5,32.7-0.1,65.4-0.2,98.2c-0.2,11.8,2.1,23.8,6.4,34.8c6.6,14,22.4,21.3,37.4,21.5
		c13.5,0.4,28.5-2.4,37.9-13.1c9.4-11.2,11.4-26.5,11.6-40.7c-0.1-33.7,0-67.4-0.1-101.1h19.4c0.1,33.8,0.2,67.6,0,101.5
		c-0.2,19.6-4,41.1-19,55c-16.7,16-41.8,17.8-63.7,15.4c-11.8-1-21.7-7.7-31.8-13.1c-6.7-10.7-13.6-21.8-15.8-34.4
		c-1.7-10.6-1.9-21.3-1.9-32C1152.3,935.6,1152.1,904.9,1151.7,874L1151.7,874z"/>
	<path d="M1304.6,873.8c21.9,0.6,43.8-0.2,65.8,0.6c21.9,1,44.6,11,56.5,30.2c13.9,22.3,16.1,50.2,12,75.7
		c-3.6,22.2-16.5,44.6-37.8,54c-30.1,14.5-64.4,6.6-96.5,8.6C1304.7,986.6,1304.5,930.2,1304.6,873.8 M1323.9,892.2
		c0,44.2,0.2,88.5,0,132.7c22.9-1.4,47.7,4.1,68.8-7.3c21-11.5,28.5-37.2,28.1-59.8c0.2-21.1-5-45.9-24.5-57.5
		C1374.4,887.6,1348,893.3,1323.9,892.2L1323.9,892.2z"/>
	<path d="M1457.4,873.9c6.8,0,13.5,0,20.3,0.1c-0.3,56.3,0.5,112.7-0.2,169.1c-6.8,0-13.5,0-20.3-0.2
		C1457.5,986.6,1457.2,930.2,1457.4,873.9L1457.4,873.9z"/>
</g>
</svg>
